<?xml version="1.0" standalone="no"?>
<!DOCTYPE svg PUBLIC "-//W3C//DTD SVG 20010904//EN"
 "http://www.w3.org/TR/2001/REC-SVG-20010904/DTD/svg10.dtd">
<svg version="1.0" xmlns="http://www.w3.org/2000/svg"
 width="500.000000pt" height="500.000000pt" viewBox="0 0 500.000000 500.000000"
 preserveAspectRatio="xMidYMid meet">
<metadata>
Created by potrace 1.14, written by Peter Selinger 2001-2017
</metadata>
<g transform="translate(0.000000,500.000000) scale(0.100000,-0.100000)"
fill="#000000" stroke="none">
<path d="M2570 2765 c0 -63 -1 -65 -25 -65 -21 0 -25 -5 -25 -30 l0 -29 -50
31 c-92 57 -208 48 -282 -22 l-39 -37 -20 29 c-45 63 -141 85 -212 49 -31 -16
-37 -16 -37 -4 0 12 -14 15 -72 12 -40 -1 -94 1 -120 5 -114 19 -198 -24 -198
-101 0 -52 23 -81 87 -109 40 -18 54 -29 51 -42 -5 -25 -44 -27 -83 -3 l-34
20 -25 -42 -25 -41 29 -19 c39 -24 136 -33 185 -17 21 7 49 24 62 38 l23 25 0
-122 0 -122 58 3 57 3 3 101 3 102 36 -19 c85 -43 176 -12 229 79 0 1 19 -15
40 -37 68 -67 172 -80 265 -33 76 38 101 84 96 175 -3 50 -1 67 8 67 10 0 14
-28 17 -105 3 -99 5 -106 31 -132 24 -24 35 -28 87 -28 74 0 85 9 71 63 -10
34 -16 41 -39 44 -27 3 -27 4 -30 81 l-3 77 41 0 40 0 0 -77 c0 -106 14 -149
53 -173 35 -22 91 -26 132 -10 21 8 25 14 19 33 l-6 22 23 -22 c54 -49 135
-57 193 -18 34 23 36 23 36 5 0 -18 7 -20 60 -20 l60 0 0 175 0 175 -60 0
c-45 0 -60 -4 -60 -14 0 -11 -8 -10 -37 5 -63 32 -142 22 -190 -23 l-23 -21 0
26 c0 25 -3 27 -40 27 l-40 0 0 65 0 65 -60 0 -60 0 0 -65 0 -65 -40 0 -40 0
0 65 0 65 -60 0 -60 0 0 -65z m-810 -174 l0 -89 -29 26 c-15 15 -51 35 -80 45
-77 27 -60 70 19 47 49 -14 48 -14 67 25 9 19 18 35 20 35 2 0 3 -40 3 -89z
m252 -11 c25 -26 29 -36 24 -63 -9 -45 -39 -71 -80 -71 -86 0 -113 112 -36
151 38 20 59 16 92 -17z m390 3 c12 -11 18 -30 18 -58 0 -48 -19 -71 -68 -81
-26 -5 -36 -1 -62 24 -18 19 -30 41 -30 57 0 16 12 38 30 57 26 25 36 29 62
24 18 -3 40 -14 50 -23z m536 -4 c-6 -17 -8 -53 -5 -80 5 -43 4 -49 -12 -49
-25 0 -31 19 -31 96 l0 64 29 0 c29 0 30 -1 19 -31z m241 16 c31 -16 41 -33
41 -74 0 -61 -62 -96 -118 -67 -60 31 -58 111 3 144 27 15 41 15 74 -3z"/>
<path d="M3404 2486 c-51 -22 -60 -81 -19 -121 48 -49 125 -16 125 54 0 60
-49 91 -106 67z"/>
<path d="M3422 2273 c-83 -41 -82 -167 2 -207 50 -23 342 -23 392 0 85 41 85
167 0 208 -49 23 -346 23 -394 -1z m144 -99 c3 -12 2 -29 -2 -36 -6 -9 -10 -4
-14 16 -7 41 -30 46 -30 7 0 -17 -4 -31 -10 -31 -5 0 -10 15 -10 34 0 25 5 36
18 38 27 6 42 -2 48 -28z m174 -13 c0 -40 -14 -61 -42 -61 -26 0 -22 20 5 21
21 1 21 1 -3 8 -30 8 -40 49 -15 67 30 22 55 6 55 -35z"/>
<path d="M3685 2180 c-8 -13 14 -42 26 -34 5 3 9 14 9 25 0 20 -24 26 -35 9z"/>
</g>
</svg>
