<svg width="25" height="25" viewBox="0 0 25 25" fill="none" xmlns="http://www.w3.org/2000/svg">
<g clip-path="url(#clip0_4369_3646)">
<path d="M21.3428 17.6449C21.0101 18.4135 20.6163 19.1211 20.16 19.7715C19.5381 20.6583 19.0288 21.2721 18.6364 21.613C18.028 22.1724 17.3762 22.459 16.6782 22.4753C16.1771 22.4753 15.5728 22.3327 14.8693 22.0434C14.1636 21.7555 13.515 21.613 12.922 21.613C12.3 21.613 11.633 21.7555 10.9195 22.0434C10.2049 22.3327 9.62928 22.4834 9.18916 22.4984C8.51981 22.5269 7.85264 22.2322 7.18668 21.613C6.76164 21.2422 6.22999 20.6067 5.59309 19.7063C4.90976 18.7449 4.34796 17.63 3.90784 16.3589C3.43648 14.986 3.2002 13.6565 3.2002 12.3694C3.2002 10.8951 3.51878 9.62345 4.15689 8.55784C4.6584 7.70191 5.32557 7.02672 6.16059 6.53105C6.99562 6.03539 7.89786 5.7828 8.86949 5.76664C9.40114 5.76664 10.0983 5.93109 10.9647 6.25429C11.8287 6.57858 12.3834 6.74303 12.6266 6.74303C12.8085 6.74303 13.4247 6.55074 14.4694 6.16738C15.4573 5.81186 16.2911 5.66466 16.9742 5.72264C18.8251 5.87202 20.2157 6.60167 21.1405 7.91619C19.4851 8.9192 18.6662 10.324 18.6825 12.1262C18.6975 13.53 19.2067 14.6981 20.2076 15.6256C20.6611 16.0561 21.1676 16.3888 21.7312 16.6251C21.609 16.9795 21.48 17.319 21.3428 17.6449ZM17.0978 0.940369C17.0978 2.04062 16.6958 3.06792 15.8946 4.01878C14.9277 5.14917 13.7582 5.80236 12.49 5.69929C12.4738 5.56729 12.4645 5.42837 12.4645 5.28239C12.4645 4.22615 12.9243 3.09576 13.7408 2.17152C14.1485 1.70356 14.667 1.31445 15.2957 1.00406C15.9231 0.698295 16.5166 0.529201 17.0747 0.500244C17.091 0.647331 17.0978 0.794426 17.0978 0.940355V0.940369Z" fill="black"/>
</g>
<defs>
<clipPath id="clip0_4369_3646">
<rect width="24" height="24" fill="white" transform="translate(0.5 0.5)"/>
</clipPath>
</defs>
</svg>
